<svg width="20" height="19" viewBox="0 0 20 19" fill="none" xmlns="http://www.w3.org/2000/svg">
<path fill-rule="evenodd" clip-rule="evenodd" d="M9.74194 0C4.60034 0 0.463867 4.11672 0.463867 9.23377C0.463867 13.312 3.13131 16.7747 6.80389 18.0058C7.26779 18.0828 7.42242 17.8135 7.42242 17.5442C7.42242 17.3133 7.42242 16.7362 7.42242 15.9667C4.83229 16.5438 4.29107 14.7356 4.29107 14.7356C3.86583 13.6583 3.24729 13.389 3.24729 13.389C2.3968 12.8119 3.32461 12.8119 3.32461 12.8119C4.25242 12.8888 4.75498 13.7737 4.75498 13.7737C5.56681 15.1972 6.91986 14.774 7.46108 14.5432C7.5384 13.9276 7.77035 13.5429 8.04096 13.312C5.99205 13.0812 3.82717 12.2732 3.82717 8.7336C3.82717 7.73328 4.1751 6.88685 4.79364 6.27127C4.71632 6.04042 4.36839 5.11704 4.87095 3.80893C4.87095 3.80893 5.64413 3.57808 7.42242 4.77078C8.15694 4.57841 8.96877 4.46299 9.74194 4.46299C10.5151 4.46299 11.3269 4.57841 12.0615 4.77078C13.8398 3.57808 14.6129 3.80893 14.6129 3.80893C15.1155 5.07857 14.8062 6.00195 14.6903 6.27127C15.2701 6.92532 15.6567 7.73328 15.6567 8.7336C15.6567 12.2732 13.4918 13.0427 11.4043 13.2735C11.7522 13.5429 12.0228 14.12 12.0228 14.9664C12.0228 16.1976 12.0228 17.1979 12.0228 17.5057C12.0228 17.7365 12.1774 18.0443 12.68 17.9674C16.3526 16.7747 19.02 13.312 19.02 9.23377C19.02 4.11672 14.8835 0 9.74194 0Z" fill="#27272A"/>
</svg>
