<svg width="21" height="20" viewBox="0 0 21 20" fill="none" xmlns="http://www.w3.org/2000/svg">
<path d="M10.427 1.7394C13.0168 1.7394 13.3234 1.74906 14.3465 1.79548C14.9616 1.80297 15.5709 1.91538 16.1478 2.12783C16.5662 2.28841 16.9462 2.5344 17.2633 2.84997C17.5804 3.16554 17.8275 3.54369 17.9889 3.96008C18.2023 4.53427 18.3153 5.14063 18.3228 5.75281C18.369 6.77098 18.3792 7.07621 18.3792 9.65359C18.3792 12.231 18.3695 12.5362 18.3228 13.5544C18.3153 14.1666 18.2023 14.7729 17.9889 15.3471C17.8275 15.7635 17.5804 16.1416 17.2633 16.4572C16.9462 16.7728 16.5662 17.0188 16.1478 17.1794C15.5709 17.3918 14.9616 17.5042 14.3465 17.5117C13.3239 17.5577 13.0172 17.5678 10.427 17.5678C7.83678 17.5678 7.53009 17.5581 6.50749 17.5117C5.89238 17.5042 5.28311 17.3918 4.70617 17.1794C4.28778 17.0188 3.90781 16.7728 3.59073 16.4572C3.27364 16.1416 3.02647 15.7635 2.86512 15.3471C2.65165 14.7729 2.5387 14.1666 2.53118 13.5544C2.48499 12.5362 2.47483 12.231 2.47483 9.65359C2.47483 7.07621 2.48453 6.77098 2.53118 5.75281C2.5387 5.14063 2.65165 4.53427 2.86512 3.96008C3.02647 3.54369 3.27364 3.16554 3.59073 2.84997C3.90781 2.5344 4.28778 2.28841 4.70617 2.12783C5.28311 1.91538 5.89238 1.80297 6.50749 1.79548C7.53056 1.74952 7.83724 1.7394 10.427 1.7394ZM10.427 0C7.79429 0 7.46266 0.0110321 6.42805 0.0579188C5.62302 0.0738547 4.82653 0.225553 4.07247 0.50656C3.4256 0.749114 2.83971 1.12922 2.35566 1.62035C1.86173 2.10226 1.47948 2.68568 1.23561 3.32987C0.95325 4.08033 0.800824 4.87302 0.784812 5.6742C0.738624 6.70295 0.727539 7.033 0.727539 9.65313C0.727539 12.2733 0.738624 12.6033 0.785736 13.633C0.801748 14.4342 0.954174 15.2269 1.23653 15.9773C1.48013 16.6214 1.86206 17.2048 2.35566 17.6868C2.83998 18.1781 3.4262 18.5582 4.07339 18.8006C4.82745 19.0816 5.62394 19.2333 6.42897 19.2493C7.46358 19.2952 7.79383 19.3072 10.4279 19.3072C13.062 19.3072 13.3923 19.2962 14.4269 19.2493C15.2319 19.2333 16.0284 19.0816 16.7825 18.8006C17.4266 18.5521 18.0115 18.1726 18.4998 17.6863C18.9882 17.2 19.3691 16.6176 19.6184 15.9764C19.9007 15.2259 20.0532 14.4333 20.0692 13.6321C20.1154 12.6033 20.1265 12.2733 20.1265 9.65313C20.1265 7.033 20.1154 6.70295 20.0683 5.67329C20.0522 4.8721 19.8998 4.07941 19.6175 3.32895C19.3739 2.68485 18.9919 2.10143 18.4983 1.61943C18.014 1.12819 17.4278 0.748076 16.7806 0.50564C16.0265 0.224633 15.2301 0.0729354 14.425 0.0569995C13.3913 0.0110322 13.0597 0 10.427 0Z" fill="#27272A"/>
<path d="M10.4252 4.69629C9.44011 4.69629 8.47711 4.98702 7.658 5.53171C6.83889 6.07641 6.20048 6.8506 5.82349 7.7564C5.44649 8.66219 5.34786 9.6589 5.54004 10.6205C5.73223 11.5821 6.20662 12.4653 6.90321 13.1586C7.5998 13.8519 8.48732 14.324 9.45352 14.5153C10.4197 14.7065 11.4212 14.6084 12.3314 14.2332C13.2415 13.858 14.0194 13.2226 14.5667 12.4074C15.114 11.5922 15.4061 10.6338 15.4061 9.6534C15.4061 8.3387 14.8814 7.07783 13.9473 6.14819C13.0132 5.21856 11.7463 4.69629 10.4252 4.69629ZM10.4252 12.8711C9.78578 12.8711 9.16069 12.6824 8.629 12.3288C8.09731 11.9753 7.68291 11.4727 7.4382 10.8848C7.19349 10.2968 7.12946 9.64983 7.25421 9.02566C7.37896 8.40148 7.68689 7.82814 8.13906 7.37814C8.59122 6.92813 9.16731 6.62168 9.79448 6.49752C10.4217 6.37336 11.0717 6.43708 11.6625 6.68063C12.2533 6.92417 12.7582 7.33659 13.1135 7.86574C13.4688 8.39489 13.6584 9.017 13.6584 9.6534C13.6584 10.5068 13.3178 11.3252 12.7114 11.9287C12.1051 12.5321 11.2827 12.8711 10.4252 12.8711Z" fill="#27272A"/>
<path d="M15.6034 5.65855C16.2462 5.65855 16.7673 5.13993 16.7673 4.50017C16.7673 3.86042 16.2462 3.3418 15.6034 3.3418C14.9606 3.3418 14.4395 3.86042 14.4395 4.50017C14.4395 5.13993 14.9606 5.65855 15.6034 5.65855Z" fill="#27272A"/>
</svg>
