<svg width="14" height="15" viewBox="0 0 14 15" fill="none" xmlns="http://www.w3.org/2000/svg">
<rect width="14" height="15" rx="7" fill="white"/>
<path d="M12.3562 5.40494C12.2279 4.59818 11.8096 3.93308 11.1822 3.5345C10.5334 3.12392 9.73254 3.03268 8.91738 3.27278C8.14738 3.50329 7.39402 3.91867 6.7167 4.48052C6.07266 3.61374 5.26939 3.11431 4.33778 2.99426C2.83105 2.79977 1.44553 3.82983 1.18649 5.33771C0.687412 8.25742 3.14951 10.8146 5.01747 12.7042C5.02223 12.4161 5.06501 12.1328 5.1363 11.859C5.15056 11.8038 5.1672 11.7486 5.18621 11.6934C3.51788 9.98379 1.60476 7.7844 1.99926 5.47937C2.16562 4.48293 2.98791 3.80582 3.96229 3.80582C4.0526 3.80582 4.14291 3.81062 4.23322 3.82263C5.06025 3.92828 5.73044 4.4181 6.2913 5.3257L6.55747 5.7555L6.92346 5.40974C7.59602 4.76865 8.36602 4.31005 9.15504 4.06994C9.73729 3.89706 10.3005 3.95709 10.7449 4.23802C11.1703 4.50934 11.4555 4.97034 11.5458 5.5394C11.648 6.15888 11.5934 6.75194 11.427 7.31379C11.4508 7.28498 11.4793 7.26097 11.5054 7.23456C11.736 7.01846 12.0449 6.94403 12.3372 7.03287H12.3396C12.4347 6.51424 12.4489 5.97399 12.3562 5.40734V5.40494Z" fill="#6CA5FB"/>
<path d="M12.3257 8.16848C11.8742 8.59347 11.734 9.23936 11.5177 9.79881C11.4155 10.0677 11.2824 10.303 11.1232 10.5143C10.9069 10.8097 10.636 11.057 10.3128 11.2923C9.57843 11.8253 8.71812 12.0918 7.88395 12.4088C7.26605 12.6393 6.66241 12.8938 6.13244 13.302C5.94232 13.446 5.59296 13.3764 5.5692 13.0955C5.54306 12.7209 5.57633 12.3536 5.66664 12.003C5.82824 11.3619 6.16809 10.7712 6.62676 10.2742C6.83352 10.0485 7.06405 9.84923 7.30645 9.67395C8.05744 9.12651 8.95577 8.78796 9.83747 8.53104C10.0015 8.48302 10.1749 8.62228 10.2201 8.77115C10.2748 8.95123 10.1868 9.09529 10.0371 9.18654C9.59506 9.46506 9.15065 9.74599 8.70624 10.0245C8.63019 10.0725 8.24281 10.2502 8.24281 10.3631C8.24756 10.5263 8.58979 10.4831 8.67297 10.4687C9.67824 10.3054 10.4744 9.50828 11.0709 8.73994C11.4464 8.25732 11.57 7.92837 11.8742 7.64024C12.1974 7.33531 12.6394 7.86594 12.3186 8.16848H12.3257Z" fill="#2B7FF9"/>
</svg>
