<?xml version="1.0" encoding="UTF-8"?><svg id="Layer_1" xmlns="http://www.w3.org/2000/svg" viewBox="0 0 216 90.42"><defs><style>.cls-1{fill:#6ca5fb;}.cls-2{fill:#2b7ff9;}</style></defs><g><g><path class="cls-2" d="M16.65,73.64c.55,0,1.18-.1,1.84-.37s1.23-.58,1.81-.58c1.23,0,1.89,1.44,1.89,2.39,0,.74-.39,1.37-1.23,1.86-1.18,.71-3.02,1.02-4.54,1.02-4.91,0-8.56-3.33-8.56-8.77,0-5.83,4.17-8.79,8.69-8.79,1.63,0,3.36,.39,4.38,1,.89,.53,1.26,1.18,1.26,1.89,0,.92-.6,2.42-1.92,2.42-.6,0-1.21-.32-1.94-.6-.6-.24-1.21-.37-1.84-.37-2.07,0-3.8,1.44-3.8,4.41,0,3.12,1.94,4.49,3.96,4.49Z"/><path class="cls-2" d="M29.48,75.24c0,.84,0,1.42-.34,1.89-.34,.47-.92,.71-1.92,.71s-1.58-.24-1.92-.71c-.34-.47-.34-1.05-.34-1.89v-11.73c0-.94,0-2.07,1.68-2.6,.76-.24,1.89-.39,3.65-.39,1.44,0,3.04,.1,4.51,.79,1.81,.84,2.89,2.39,2.89,4.65,0,2.1-.95,3.73-2.68,4.7l3.62,4.8c.84,1.13,.32,2.39-1.94,2.39-1.73,0-2.39-.73-3.2-1.97l-1.81-2.73c-.47-.73-.84-1.44-.84-1.44h-1.36v3.54Zm0-7.16s.37,.03,.74,.03c1.94,0,2.7-.76,2.7-1.89,0-1.31-1.02-1.73-2.39-1.73-.58,0-1.05,.08-1.05,.08v3.52Z"/><path class="cls-2" d="M46.3,66.87h2.47c.84,0,1.42,0,1.89,.32,.47,.31,.71,.81,.71,1.71s-.24,1.36-.71,1.68c-.47,.31-1.05,.31-1.89,.31h-2.47v2.81h3.94c.84,0,1.42,0,1.89,.31,.47,.32,.71,.81,.71,1.71s-.24,1.37-.71,1.68c-.47,.32-1.05,.32-1.89,.32h-6.25c-1.63,0-2.23-.6-2.23-2.23v-12.49c0-1.63,.6-2.23,2.23-2.23h5.77c.84,0,1.42,0,1.89,.32,.47,.31,.71,.81,.71,1.71s-.24,1.36-.71,1.68c-.47,.31-1.05,.31-1.89,.31h-3.46v2.1Z"/><path class="cls-2" d="M65.54,74.32h-5.85l-.47,1.31c-.55,1.52-1.21,2.2-2.86,2.2-1.5,0-2.05-.55-2.05-1.39,0-.32,.08-.66,.29-1.13l5.35-12.7c.55-1.34,1.18-2.05,2.86-2.05s2.26,.74,2.78,2.05l5.17,12.73c.16,.45,.24,.76,.24,1.05,0,.94-.74,1.44-2.23,1.44-1.57,0-2.13-.55-2.73-2.18l-.5-1.34Zm-4.54-3.62h3.25l-1.63-4.41-1.63,4.41Z"/><path class="cls-2" d="M80.15,75.24c0,.84,0,1.42-.37,1.89-.37,.47-.97,.71-2.02,.71s-1.65-.24-2.02-.71c-.37-.47-.37-1.05-.37-1.89v-10.18h-2.26c-.84,0-1.42,0-1.89-.34-.47-.32-.71-.87-.71-1.81s.24-1.5,.71-1.81c.47-.34,1.05-.34,1.89-.34h9.29c.84,0,1.42,0,1.89,.34,.47,.31,.71,.87,.71,1.81s-.24,1.5-.71,1.81c-.47,.34-1.05,.34-1.89,.34h-2.26v10.18Z"/><path class="cls-2" d="M94.77,60.36c5.56,0,9.05,3.75,9.05,8.84s-3.6,8.84-9.16,8.84-9.05-3.75-9.05-8.84,3.6-8.84,9.16-8.84Zm-.05,13.57c2.6,0,4.28-1.73,4.28-4.72s-1.68-4.72-4.28-4.72-4.28,1.73-4.28,4.72,1.68,4.72,4.28,4.72Z"/><path class="cls-2" d="M111.25,75.24c0,.84,0,1.42-.34,1.89-.34,.47-.92,.71-1.92,.71s-1.58-.24-1.92-.71c-.34-.47-.34-1.05-.34-1.89v-11.73c0-.94,0-2.07,1.68-2.6,.76-.24,1.89-.39,3.65-.39,1.44,0,3.04,.1,4.51,.79,1.81,.84,2.89,2.39,2.89,4.65,0,2.1-.95,3.73-2.68,4.7l3.62,4.8c.84,1.13,.32,2.39-1.94,2.39-1.73,0-2.39-.73-3.2-1.97l-1.81-2.73c-.47-.73-.84-1.44-.84-1.44h-1.36v3.54Zm0-7.16s.37,.03,.74,.03c1.94,0,2.7-.76,2.7-1.89,0-1.31-1.02-1.73-2.39-1.73-.58,0-1.05,.08-1.05,.08v3.52Z"/></g><g><path class="cls-2" d="M137.76,68.31c1.37,.92,2.52,2.23,2.52,4.38,0,3.36-2.86,5.3-6.35,5.3-1.21,0-2.42-.24-3.57-.76-.89-.42-1.65-.97-1.65-2.02s.68-2.31,1.89-2.31c1.1,0,1.94,1.1,3.36,1.1,.95,0,1.55-.47,1.55-1.13,0-.81-.92-1.31-2.05-1.92-1.94-1.02-4.59-2.26-4.59-5.33s2.76-5.2,6.14-5.2c2.36,0,4.99,1,4.99,2.73,0,1-.87,2.21-2,2.21-.97,0-1.92-.92-3.1-.92-.79,0-1.26,.42-1.26,.92,0,1.08,2.23,1.65,4.12,2.94Z"/><path class="cls-2" d="M158.76,75.26c0,.84,0,1.42-.37,1.89-.37,.47-.97,.71-2.02,.71s-1.65-.24-2.02-.71c-.37-.47-.37-1.05-.37-1.89v-4.3h-6.09v4.3c0,.84,0,1.42-.37,1.89-.37,.47-.97,.71-2.02,.71s-1.65-.24-2.02-.71c-.37-.47-.37-1.05-.37-1.89v-12.07c0-.84,0-1.42,.37-1.89s.97-.71,2.02-.71,1.65,.24,2.02,.71c.37,.47,.37,1.05,.37,1.89v3.54h6.09v-3.54c0-.84,0-1.42,.37-1.89s.97-.71,2.02-.71,1.65,.24,2.02,.71c.37,.47,.37,1.05,.37,1.89v12.07Z"/><path class="cls-2" d="M172.4,74.35h-5.85l-.47,1.31c-.55,1.52-1.21,2.2-2.86,2.2-1.5,0-2.05-.55-2.05-1.39,0-.32,.08-.66,.29-1.13l5.35-12.7c.55-1.34,1.18-2.05,2.86-2.05s2.26,.74,2.78,2.05l5.17,12.73c.16,.45,.24,.76,.24,1.05,0,.94-.74,1.44-2.23,1.44-1.57,0-2.13-.55-2.73-2.18l-.5-1.34Zm-4.54-3.62h3.25l-1.63-4.41-1.63,4.41Z"/><path class="cls-2" d="M184.79,75.26c0,.84,0,1.42-.34,1.89-.34,.47-.92,.71-1.92,.71s-1.58-.24-1.92-.71c-.34-.47-.34-1.05-.34-1.89v-11.73c0-.94,0-2.07,1.68-2.6,.76-.24,1.89-.39,3.65-.39,1.44,0,3.04,.1,4.51,.79,1.81,.84,2.89,2.39,2.89,4.65,0,2.1-.95,3.73-2.68,4.7l3.62,4.8c.84,1.13,.32,2.39-1.94,2.39-1.73,0-2.39-.73-3.2-1.97l-1.81-2.73c-.47-.73-.84-1.44-.84-1.44h-1.37v3.54Zm0-7.16s.37,.03,.73,.03c1.94,0,2.7-.76,2.7-1.89,0-1.31-1.02-1.73-2.39-1.73-.58,0-1.05,.08-1.05,.08v3.52Z"/><path class="cls-2" d="M201.61,66.89h2.47c.84,0,1.42,0,1.89,.32,.47,.31,.71,.81,.71,1.71s-.24,1.36-.71,1.68c-.47,.31-1.05,.31-1.89,.31h-2.47v2.81h3.94c.84,0,1.42,0,1.89,.31,.47,.32,.71,.81,.71,1.71s-.24,1.37-.71,1.68c-.47,.32-1.05,.32-1.89,.32h-6.25c-1.63,0-2.23-.6-2.23-2.23v-12.49c0-1.63,.6-2.23,2.23-2.23h5.77c.84,0,1.42,0,1.89,.32,.47,.31,.71,.81,.71,1.71s-.24,1.36-.71,1.68c-.47,.31-1.05,.31-1.89,.31h-3.46v2.1Z"/></g></g><g><path class="cls-2" d="M16.19,52.91c0,.31,0,.54-.13,.72-.15,.18-.43,.3-.77,.3s-.64-.12-.79-.3c-.13-.18-.13-.41-.13-.72v-8.1h-2.53c-.28,0-.48,0-.66-.13-.16-.11-.28-.33-.28-.67s.12-.54,.28-.66c.18-.13,.38-.15,.66-.15h6.9c.26,0,.46,.02,.64,.15,.16,.12,.28,.31,.28,.66s-.12,.56-.28,.67c-.18,.13-.38,.13-.64,.13h-2.55v8.1Z"/><path class="cls-2" d="M30.67,52.91c0,.31,0,.56-.13,.74-.15,.18-.39,.28-.77,.28s-.64-.1-.79-.28c-.13-.18-.13-.43-.13-.74v-3.94h-5.32v3.94c0,.31,0,.56-.13,.74-.15,.18-.39,.28-.77,.28s-.64-.1-.79-.28c-.13-.18-.13-.43-.13-.74v-8.82c0-.31,0-.54,.13-.72,.15-.18,.39-.28,.79-.28s.62,.1,.77,.28c.13,.18,.13,.41,.13,.72v3.27h5.32v-3.27c0-.31,0-.54,.13-.72,.15-.18,.39-.28,.79-.28s.62,.1,.77,.28c.13,.18,.13,.41,.13,.72v8.82Z"/><path class="cls-2" d="M35.75,47.34h2.28c.26,0,.46,.02,.64,.15,.17,.11,.28,.31,.28,.66s-.12,.56-.28,.67c-.18,.13-.38,.13-.64,.13h-2.28v3.27h3.32c.26,0,.46,.02,.64,.15,.16,.11,.28,.31,.28,.66s-.12,.56-.28,.67c-.18,.13-.38,.13-.64,.13h-4.24c-.66,0-.87-.26-.87-.87v-8.89c0-.64,.25-.87,.87-.87h3.81c.26,0,.46,.02,.64,.15,.16,.12,.28,.31,.28,.66s-.12,.56-.28,.67c-.18,.13-.38,.13-.64,.13h-2.89v2.53Z"/></g><path class="cls-1" d="M84.72,22.51c-.54-3.36-2.3-6.13-4.94-7.79-2.73-1.71-6.1-2.09-9.53-1.09-3.24,.96-6.41,2.69-9.26,5.03-2.71-3.61-6.09-5.69-10.01-6.19-6.34-.81-12.17,3.48-13.26,9.76-2.1,12.16,8.26,22.81,16.12,30.68,.02-1.2,.2-2.38,.5-3.52,.06-.23,.13-.46,.21-.69-7.02-7.12-15.07-16.28-13.41-25.88,.7-4.15,4.16-6.97,8.26-6.97,.38,0,.76,.02,1.14,.07,3.48,.44,6.3,2.48,8.66,6.26l1.12,1.79,1.54-1.44c2.83-2.67,6.07-4.58,9.39-5.58,2.45-.72,4.82-.47,6.69,.7,1.79,1.13,2.99,3.05,3.37,5.42,.43,2.58,.2,5.05-.5,7.39,.1-.12,.22-.22,.33-.33,.97-.9,2.27-1.21,3.5-.84h.01c.4-2.16,.46-4.41,.07-6.77Z"/><path class="cls-2" d="M84.59,34.02c-1.9,1.77-2.49,4.46-3.4,6.79-.43,1.12-.99,2.1-1.66,2.98-.91,1.23-2.05,2.26-3.41,3.24-3.09,2.22-6.71,3.33-10.22,4.65-2.6,.96-5.14,2.02-7.37,3.72-.8,.6-2.27,.31-2.37-.86-.11-1.56,.03-3.09,.41-4.55,.68-2.67,2.11-5.13,4.04-7.2,.87-.94,1.84-1.77,2.86-2.5,3.16-2.28,6.94-3.69,10.65-4.76,.69-.2,1.42,.38,1.61,1,.23,.75-.14,1.35-.77,1.73-1.86,1.16-3.73,2.33-5.6,3.49-.32,.2-1.95,.94-1.95,1.41,.02,.68,1.46,.5,1.81,.44,4.23-.68,7.58-4,10.09-7.2,1.58-2.01,2.1-3.38,3.38-4.58,1.36-1.27,3.22,.94,1.87,2.2Z"/></svg>